<svg width="238" height="238" viewBox="0 0 238 238" fill="none" xmlns="http://www.w3.org/2000/svg">
<path d="M238 182.022L0 182.022L0 182.141L238 182.141V182.022Z" fill="#E0E0E0"/>
<path d="M179.766 187.063H163.392V187.182H179.766V187.063Z" fill="#E0E0E0"/>
<path d="M52.855 187.12H43.6396V187.239H52.855V187.12Z" fill="#E0E0E0"/>
<path d="M119.476 186.844H100.798V186.963H119.476V186.844Z" fill="#E0E0E0"/>
<path d="M100.322 185.15H91.9728V185.269H100.322V185.15Z" fill="#E0E0E0"/>
<path d="M202.091 185.212H176.867V185.331H202.091V185.212Z" fill="#E0E0E0"/>
<path d="M192.461 182.022H186.54V132.166C186.54 130.538 187.872 129.205 189.5 129.205C191.128 129.205 192.461 130.538 192.461 132.166V182.022Z" fill="#9986A1"/>
<path d="M209.112 122.441C203.252 113.526 208.602 103.944 207.712 94.029C206.822 84.114 197.397 81.9482 199.182 73.542C201.248 63.7983 195.746 54.4401 189.505 54.4401C183.265 54.4401 177.758 63.7983 179.828 73.542C181.613 81.9482 172.188 84.114 171.298 94.029C170.408 103.944 175.754 113.531 169.899 122.441C164.039 131.357 165.577 143.162 168.88 149.021C169.789 150.635 170.86 152.063 172.026 153.329C181.394 163.473 197.621 163.473 206.989 153.329C208.155 152.063 209.226 150.635 210.135 149.021C213.434 143.162 214.971 131.352 209.112 122.441Z" fill="#330E44"/>
<path d="M152.277 182.022H144.214V132.171C144.214 129.953 146.027 128.139 148.245 128.139C150.464 128.139 152.277 129.953 152.277 132.171V182.022Z" fill="#9986A1"/>
<path d="M148.245 168.575C161.96 168.575 173.078 157.457 173.078 143.742C173.078 130.028 161.96 118.91 148.245 118.91C134.531 118.91 123.412 130.028 123.412 143.742C123.412 157.457 134.531 168.575 148.245 168.575Z" fill="#330E44"/>
<path d="M177.429 136.297C178.733 131.052 175.537 125.743 170.291 124.44C165.046 123.137 159.737 126.333 158.434 131.578C157.131 136.824 160.327 142.133 165.572 143.436C170.818 144.739 176.126 141.543 177.429 136.297Z" fill="#330E44"/>
<path d="M133.883 129.073C134.397 125.916 132.254 122.939 129.097 122.424C125.939 121.91 122.962 124.053 122.448 127.21C121.933 130.368 124.076 133.345 127.234 133.859C130.391 134.374 133.368 132.231 133.883 129.073Z" fill="#330E44"/>
<path d="M134.46 129.205C136.705 129.205 138.525 127.385 138.525 125.14C138.525 122.895 136.705 121.075 134.46 121.075C132.215 121.075 130.395 122.895 130.395 125.14C130.395 127.385 132.215 129.205 134.46 129.205Z" fill="#330E44"/>
<path d="M91.5158 53.3786C93.9339 46.3005 92.0156 41.2597 86.1084 41.2597C82.4052 41.2597 77.8118 43.2446 73.3374 46.4719C72.8328 44.6298 71.4096 43.5254 69.12 43.5254C65.0883 43.5254 59.5334 46.9336 55.178 51.746C54.1212 50.675 52.598 50.0181 50.6369 49.9134C46.7813 49.6944 42.107 51.6555 38.0467 54.84C37.6945 54.3068 37.09 53.9736 36.257 53.9213C34.034 53.7975 31.0257 55.7729 29.5311 58.3338C29.4359 58.4956 29.355 58.648 29.274 58.805H33.8912H37.566H50.3228L56.6012 58.805H61.485L69.0058 58.805H70.3719H89.012H92.6868C92.8772 56.5774 92.4821 54.7114 91.5158 53.3786Z" fill="#51385D"/>
<path d="M91.711 96.3567C92.8914 92.9009 91.9537 90.4352 89.0692 90.4352C87.2604 90.4352 85.0136 91.4063 82.8288 92.9818C82.5813 92.0822 81.8863 91.5443 80.7677 91.5443C78.7971 91.5443 76.0839 93.2103 73.9562 95.557C73.4421 95.0334 72.6948 94.7145 71.738 94.6621C69.853 94.5574 67.573 95.5142 65.5881 97.0707C65.4167 96.8089 65.1216 96.647 64.717 96.6232C63.6317 96.5614 62.1609 97.5276 61.4326 98.7795C61.385 98.8604 61.3469 98.9318 61.3041 99.008H63.5603H65.3548H71.5857H74.6511H77.0359H80.7106H81.377H90.4876H92.2822C92.3774 97.918 92.1822 97.0088 91.711 96.3567Z" fill="#F0F0F0"/>
<path d="M121.208 209.851C172.179 209.851 213.499 207.439 213.499 204.463C213.499 201.487 172.179 199.075 121.208 199.075C70.2363 199.075 28.9159 201.487 28.9159 204.463C28.9159 207.439 70.2363 209.851 121.208 209.851Z" fill="#F6EBFF" style="mix-blend-mode:darken"/>
<path d="M23.2573 71.6666L131.771 87.2889L146.332 101.983L23.2573 71.6666Z" fill="#330E44"/>
<path opacity="0.6" d="M23.2573 71.6666L131.771 87.2889L146.332 101.983L23.2573 71.6666Z" fill="white"/>
<path d="M23.2573 71.6666L131.771 87.2889L126.735 108.538L23.2573 71.6666Z" fill="#330E44"/>
<path opacity="0.2" d="M23.2573 71.6666L131.771 87.2889L126.735 108.538L23.2573 71.6666Z" fill="#330E44"/>
<path d="M124.507 47.067L130.81 76.5933C131.152 78.1927 130.119 79.7777 128.525 80.1205L72.3186 92.1157C70.7193 92.4584 69.1342 91.4255 68.7915 89.8309L62.4893 60.3046C62.3131 59.4668 62.5083 58.6338 62.9653 57.9817C63.3841 57.3867 64.0172 56.944 64.7788 56.7774L120.985 44.7822C121.746 44.6204 122.508 44.7679 123.132 45.1392C123.808 45.5486 124.326 46.2293 124.507 47.067Z" fill="#330E44"/>
<path opacity="0.4" d="M124.507 47.067L130.81 76.5933C131.152 78.1927 130.119 79.7777 128.525 80.1205L72.3186 92.1157C70.7193 92.4584 69.1342 91.4255 68.7915 89.8309L62.4893 60.3046C62.3131 59.4668 62.5083 58.6338 62.9653 57.9817C63.3841 57.3867 64.0172 56.944 64.7788 56.7774L120.985 44.7822C121.746 44.6204 122.508 44.7679 123.132 45.1392C123.808 45.5486 124.326 46.2293 124.507 47.067Z" fill="#330E44"/>
<path d="M123.122 45.1343L104.339 68.187C100.75 72.59 94.5859 73.9038 89.5117 71.3524L62.9557 57.972C63.3746 57.377 64.0077 56.9344 64.7693 56.7678L120.975 44.7726C121.742 44.6155 122.499 44.763 123.122 45.1343Z" fill="#AD9FB4"/>
<path d="M23.2573 71.6666L112.76 92.939L126.735 108.538L23.2573 71.6666Z" fill="#330E44"/>
<path opacity="0.6" d="M23.2573 71.6666L112.76 92.939L126.735 108.538L23.2573 71.6666Z" fill="white"/>
<path d="M55.903 92.1816L55.6624 92.5923L65.6217 98.4272L65.8623 98.0166L55.903 92.1816Z" fill="#330E44"/>
<path d="M70.2619 100.59L70.0212 101L73.6025 103.099L73.8431 102.688L70.2619 100.59Z" fill="#330E44"/>
<path d="M23.2573 71.6666L112.76 92.939L95.3618 113.907L23.2573 71.6666Z" fill="url(#paint0_linear_146_248)"/>
<path d="M142.971 121.504C142.857 121.504 142.738 121.48 142.619 121.437L128.039 115.663C127.549 115.468 127.311 114.916 127.506 114.426C127.701 113.935 128.249 113.697 128.744 113.893L143.324 119.666C143.814 119.862 144.052 120.414 143.857 120.904C143.709 121.275 143.352 121.504 142.971 121.504Z" fill="#330E44"/>
<path opacity="0.3" d="M142.971 121.504C142.857 121.504 142.738 121.48 142.619 121.437L128.039 115.663C127.549 115.468 127.311 114.916 127.506 114.426C127.701 113.935 128.249 113.697 128.744 113.893L143.324 119.666C143.814 119.862 144.052 120.414 143.857 120.904C143.709 121.275 143.352 121.504 142.971 121.504Z" fill="#330E44"/>
<path d="M142.11 113.145C141.996 113.145 141.877 113.121 141.758 113.079L133.927 109.98C133.437 109.785 133.199 109.232 133.394 108.742C133.589 108.252 134.137 108.014 134.632 108.209L142.462 111.308C142.952 111.503 143.19 112.055 142.995 112.545C142.848 112.917 142.491 113.145 142.11 113.145Z" fill="#330E44"/>
<path opacity="0.5" d="M142.11 113.145C141.996 113.145 141.877 113.121 141.758 113.079L133.927 109.98C133.437 109.785 133.199 109.232 133.394 108.742C133.589 108.252 134.137 108.014 134.632 108.209L142.462 111.308C142.952 111.503 143.19 112.055 142.995 112.545C142.848 112.917 142.491 113.145 142.11 113.145Z" fill="white"/>
<path d="M125.74 121.361C125.626 121.361 125.507 121.337 125.388 121.294L111.17 115.663C110.68 115.468 110.441 114.916 110.637 114.426C110.832 113.935 111.384 113.697 111.874 113.893L126.092 119.524C126.583 119.719 126.821 120.271 126.625 120.761C126.478 121.132 126.121 121.361 125.74 121.361Z" fill="#330E44"/>
<path opacity="0.3" d="M125.74 121.361C125.626 121.361 125.507 121.337 125.388 121.294L111.17 115.663C110.68 115.468 110.441 114.916 110.637 114.426C110.832 113.935 111.384 113.697 111.874 113.893L126.092 119.524C126.583 119.719 126.821 120.271 126.625 120.761C126.478 121.132 126.121 121.361 125.74 121.361Z" fill="#330E44"/>
<path d="M177.215 78.4543C178.476 80.9152 179.633 83.3809 180.732 85.9037C181.823 88.4265 182.86 90.9826 183.75 93.6578L184.074 94.6716C184.126 94.8525 184.212 95.1476 184.26 95.3571C184.302 95.576 184.35 95.8045 184.379 96.0044C184.502 96.8327 184.526 97.5848 184.54 98.3178C184.564 99.7839 184.464 101.183 184.341 102.578C184.074 105.358 183.641 108.062 183.046 110.775L180.437 110.484C180.404 107.804 180.38 105.096 180.285 102.454C180.237 101.136 180.161 99.822 180.028 98.5796C179.961 97.9656 179.861 97.361 179.747 96.8565C179.719 96.7232 179.685 96.6185 179.652 96.509C179.614 96.39 179.6 96.3614 179.547 96.2234L179.19 95.3238C178.195 92.9152 177.077 90.4876 175.934 88.0695L172.479 80.82L177.215 78.4543Z" fill="#E4897B"/>
<path d="M180.471 109.68L179.252 111.96L183.146 113.045C183.146 113.045 183.888 111.213 183.003 109.766L180.471 109.68Z" fill="#E4897B"/>
<path d="M177.762 115.244L181.342 115.525L183.146 113.045L179.252 111.96L177.762 115.244Z" fill="#E4897B"/>
<path d="M160.826 62.0037C160.769 62.2798 160.579 62.475 160.398 62.4369C160.217 62.3988 160.117 62.1465 160.174 61.8705C160.231 61.5944 160.422 61.3992 160.602 61.4373C160.783 61.4754 160.883 61.7277 160.826 62.0037Z" fill="#263238"/>
<path d="M160.607 62.4797C160.607 62.4797 159.655 63.9458 158.808 64.5741C159.203 65.1311 160.079 65.0882 160.079 65.0882L160.607 62.4797Z" fill="#DE5753"/>
<path d="M162.149 60.6757C162.107 60.6757 162.059 60.6567 162.026 60.6233C161.531 60.0855 160.94 60.1759 160.917 60.1759C160.831 60.1902 160.74 60.1283 160.726 60.0379C160.712 59.9474 160.774 59.8617 160.859 59.8475C160.893 59.8427 161.645 59.7237 162.268 60.3949C162.33 60.4615 162.326 60.5662 162.259 60.6281C162.23 60.6614 162.192 60.6757 162.149 60.6757Z" fill="#263238"/>
<path d="M168.699 65.8927C168.199 68.4488 167.695 73.1374 169.485 74.8462C169.485 74.8462 168.785 77.4404 164.03 77.4404C158.803 77.4404 161.531 74.8462 161.531 74.8462C164.382 74.1656 164.311 72.0474 163.811 70.0624L168.699 65.8927Z" fill="#E4897B"/>
<path d="M170.208 76.4599C170.584 75.208 171.003 73.7705 170.142 73.323C169.194 72.828 164.02 72.3234 162.235 73.2516C160.45 74.1798 160.955 76.7217 160.955 76.7217L170.208 76.4599Z" fill="#263238"/>
<path d="M181.23 185.729C180.807 185.729 180.396 185.653 180.238 185.419C180.171 185.318 180.12 185.154 180.244 184.895C180.311 184.762 180.413 184.674 180.554 184.636C181.162 184.478 182.301 185.356 182.352 185.394C182.385 185.419 182.397 185.464 182.391 185.508C182.385 185.552 182.357 185.584 182.318 185.596C182.098 185.653 181.658 185.729 181.23 185.729ZM180.712 184.844C180.667 184.844 180.627 184.851 180.593 184.857C180.509 184.882 180.452 184.926 180.413 185.002C180.323 185.186 180.379 185.261 180.396 185.287C180.571 185.546 181.422 185.552 182.036 185.432C181.675 185.192 181.089 184.844 180.712 184.844Z" fill="#330E44"/>
<path d="M182.312 185.729C182.298 185.729 182.283 185.726 182.274 185.722C181.913 185.585 181.214 185.047 181.285 184.773C181.3 184.723 181.352 184.636 181.547 184.619C181.67 184.609 181.794 184.632 181.898 184.693C182.302 184.927 182.388 185.635 182.393 185.665C182.393 185.686 182.378 185.706 182.355 185.719C182.345 185.726 182.326 185.729 182.312 185.729ZM181.609 184.733C181.594 184.733 181.585 184.733 181.571 184.733C181.461 184.743 181.452 184.776 181.452 184.793C181.409 184.957 181.851 185.361 182.212 185.552C182.169 185.345 182.06 184.933 181.799 184.783C181.737 184.749 181.675 184.733 181.609 184.733Z" fill="#330E44"/>
<path d="M160.121 185.729C159.673 185.729 159.239 185.647 159.091 185.383C159.039 185.289 159.001 185.132 159.096 184.905C159.153 184.779 159.239 184.691 159.358 184.647C159.94 184.44 161.166 185.358 161.218 185.396C161.247 185.421 161.266 185.465 161.261 185.509C161.256 185.553 161.228 185.591 161.194 185.597C160.97 185.66 160.541 185.729 160.121 185.729ZM159.563 184.836C159.506 184.836 159.449 184.842 159.401 184.861C159.325 184.886 159.272 184.937 159.239 185.012C159.182 185.15 159.201 185.213 159.225 185.251C159.382 185.54 160.269 185.553 160.922 185.433C160.603 185.22 159.973 184.836 159.563 184.836Z" fill="#330E44"/>
<path d="M161.192 185.729C161.184 185.729 161.172 185.729 161.164 185.726C160.805 185.592 160.1 185.06 160.152 184.783C160.164 184.716 160.221 184.635 160.414 184.619C160.559 184.609 160.688 184.639 160.801 184.719C161.176 184.977 161.257 185.639 161.261 185.665C161.265 185.685 161.253 185.706 161.233 185.719C161.221 185.726 161.209 185.729 161.192 185.729ZM160.471 184.732C160.459 184.732 160.443 184.732 160.43 184.732C160.305 184.742 160.297 184.786 160.293 184.799C160.261 184.966 160.741 185.385 161.108 185.565C161.071 185.371 160.963 184.977 160.717 184.806C160.64 184.756 160.559 184.732 160.471 184.732Z" fill="#330E44"/>
<path d="M164.598 185.729H161.563L161.262 177.944H164.297L164.598 185.729Z" fill="#E4897B"/>
<path d="M185.729 185.729H182.767L181.28 177.944H184.238L185.729 185.729Z" fill="#E4897B"/>
<path d="M182.09 185.729H185.875C186.013 185.729 186.132 185.813 186.164 185.929L186.829 188.538C186.898 188.81 186.655 189.065 186.334 189.061C185.013 189.041 184.37 188.974 182.705 188.974C181.682 188.974 179.571 189.065 178.153 189.065C176.768 189.065 176.552 187.847 177.135 187.735C179.732 187.239 180.709 186.556 181.539 185.909C181.691 185.793 181.888 185.729 182.09 185.729Z" fill="#263238"/>
<path d="M161.972 185.729H165.814C165.957 185.729 166.082 185.813 166.115 185.929L166.81 188.538C166.882 188.81 166.637 189.065 166.302 189.061C164.918 189.041 162.911 188.974 161.172 188.974C159.137 188.974 157.374 189.065 154.989 189.065C153.542 189.065 153.145 187.847 153.748 187.735C156.502 187.231 158.749 187.179 161.129 185.957C161.383 185.825 161.67 185.729 161.972 185.729Z" fill="#263238"/>
<path d="M159.927 80.9866C156.961 80.7534 154.11 80.3726 151.211 79.8299C149.769 79.5539 148.322 79.2445 146.879 78.8541C145.432 78.4686 143.981 78.0259 142.519 77.4166C142.153 77.2643 141.781 77.0977 141.415 76.9216C140.953 76.6931 140.568 76.4551 140.23 76.2314C139.544 75.7792 138.954 75.3079 138.369 74.8415C137.202 73.9085 136.122 72.9375 135.051 71.9617C132.923 69.991 130.905 67.9537 128.958 65.8117L130.71 63.8554L137.616 68.8201C138.754 69.6435 139.906 70.4432 141.039 71.2001C141.601 71.5761 142.181 71.9283 142.705 72.2282C142.971 72.3805 143.209 72.49 143.39 72.5662C143.671 72.6757 143.962 72.7851 144.261 72.8851C146.679 73.6895 149.412 74.2084 152.13 74.6463C154.848 75.0747 157.656 75.4317 160.369 75.7125L159.927 80.9866Z" fill="#E4897B"/>
<path d="M175.749 75.6364C179.028 76.3885 182.341 85.9704 182.341 85.9704L175.596 90.8113C175.596 90.8113 173.711 86.3464 171.86 82.4432C169.913 78.3543 172.398 74.87 175.749 75.6364Z" fill="#330E44"/>
<path opacity="0.4" d="M175.749 75.6364C179.028 76.3885 182.341 85.9704 182.341 85.9704L175.596 90.8113C175.596 90.8113 173.711 86.3464 171.86 82.4432C169.913 78.3543 172.398 74.87 175.749 75.6364Z" fill="#330E44"/>
<path d="M173.859 80.8724L172.521 83.8664C173.907 86.8557 175.173 89.8164 175.511 90.6066C175.463 87.0699 174.792 82.6812 173.859 80.8724Z" fill="#330E44"/>
<path opacity="0.6" d="M173.859 80.8724L172.521 83.8664C173.907 86.8557 175.173 89.8164 175.511 90.6066C175.463 87.0699 174.792 82.6812 173.859 80.8724Z" fill="#330E44"/>
<path d="M156.161 75.8173C156.161 75.8173 152.439 80.0204 155.957 106.043C161.593 106.043 171.917 106.043 174.659 106.043C174.787 103.173 172.983 89.1643 175.754 75.6364C175.754 75.6364 172.545 74.9938 169.494 74.8462C167.105 74.732 163.644 74.6558 161.545 74.8462C158.77 75.0985 156.161 75.8173 156.161 75.8173Z" fill="#330E44"/>
<path opacity="0.4" d="M156.161 75.8173C156.161 75.8173 152.439 80.0204 155.957 106.043C161.593 106.043 171.917 106.043 174.659 106.043C174.787 103.173 172.983 89.1643 175.754 75.6364C175.754 75.6364 172.545 74.9938 169.494 74.8462C167.105 74.732 163.644 74.6558 161.545 74.8462C158.77 75.0985 156.161 75.8173 156.161 75.8173Z" fill="#330E44"/>
<path d="M154.776 80.8724C154.652 81.8577 154.557 83.0239 154.495 84.3996C156.042 83.9188 157.965 83.1477 159.703 81.9529L154.776 80.8724Z" fill="#330E44"/>
<path opacity="0.6" d="M154.776 80.8724C154.652 81.8577 154.557 83.0239 154.495 84.3996C156.042 83.9188 157.965 83.1477 159.703 81.9529L154.776 80.8724Z" fill="#330E44"/>
<path d="M162.778 81.3817C160.274 83.5999 150.716 83.3762 150.716 83.3762L150.402 74.137C150.402 74.137 155.819 74.9319 160.145 74.8415C165.486 74.7368 165.524 78.9494 162.778 81.3817Z" fill="#330E44"/>
<path opacity="0.4" d="M162.778 81.3817C160.274 83.5999 150.716 83.3762 150.716 83.3762L150.402 74.137C150.402 74.137 155.819 74.9319 160.145 74.8415C165.486 74.7368 165.524 78.9494 162.778 81.3817Z" fill="#330E44"/>
<path d="M130.791 63.8982L128.392 61.0946L125.831 63.9316C125.831 63.9316 127.406 66.5876 129.92 66.1688L130.791 63.8982Z" fill="#E4897B"/>
<path d="M125.002 57.8245L124.079 61.4849L125.826 63.9315L128.392 61.0946L125.002 57.8245Z" fill="#E4897B"/>
<path d="M163.349 58.529C160.212 57.0772 159.222 50.7511 168.242 52.3172C168.242 52.3172 166.881 53.8261 169.646 54.7781C172.412 55.7301 170.099 61.6468 163.349 58.529Z" fill="#263238"/>
<path d="M170.165 63.2937C169.266 66.6447 168.913 68.6535 166.843 70.0481C163.73 72.1425 159.855 69.7387 159.736 66.1878C159.627 62.9891 161.116 58.0434 164.71 57.3675C168.256 56.7011 171.065 59.9427 170.165 63.2937Z" fill="#E4897B"/>
<path d="M168.123 54.026C170.26 55.2208 173.155 55.9348 172.864 57.6246C172.507 59.6952 174.616 58.4004 174.126 61.4849C173.807 63.4984 170.089 69.6007 167.476 69.3008C163.544 68.8534 164.044 62.851 164.03 59.6952C164.02 57.834 163.934 51.6793 168.123 54.026Z" fill="#263238"/>
<path d="M163.558 56.6964C162.606 56.9201 161.345 62.4083 165.034 62.9129C169.275 63.4889 163.558 56.6964 163.558 56.6964Z" fill="#263238"/>
<path d="M163.654 58.6432C162.487 58.7479 159.855 57.3437 160.169 55.2303C160.169 55.2303 161.85 57.7007 163.654 58.6432Z" fill="#263238"/>
<path d="M165.386 63.3508C165.02 64.1838 164.33 64.836 163.663 65.1882C162.659 65.7118 162.092 64.9454 162.321 63.9411C162.526 63.0367 163.297 61.6706 164.33 61.5611C165.343 61.4468 165.8 62.3988 165.386 63.3508Z" fill="#E4897B"/>
<path d="M170.622 59.4762C171.327 59.1144 172.936 58.3005 173.378 55.9919C173.374 55.9871 174.944 60.3758 170.622 59.4762Z" fill="#263238"/>
<path d="M174.592 59.4286C174.24 59.2239 173.44 58.7527 172.312 59.2049C172.317 59.2049 173.783 57.3056 174.592 59.4286Z" fill="#263238"/>
<path d="M162.587 106.004C162.587 106.004 166.557 129.996 168.733 138.987C171.117 148.829 180.104 181.621 180.104 181.621H186.511C186.511 181.621 180.585 149.629 179.224 139.88C177.748 129.303 174.654 106.008 174.654 106.008H162.587V106.004Z" fill="#330E44"/>
<path opacity="0.5" d="M162.587 106.004C162.587 106.004 166.557 129.996 168.733 138.987C171.117 148.829 180.104 181.621 180.104 181.621H186.511C186.511 181.621 180.585 149.629 179.224 139.88C177.748 129.303 174.654 106.008 174.654 106.008H162.587V106.004Z" fill="white"/>
<path d="M179.086 179.497C179.057 179.497 179.747 181.706 179.747 181.706H186.954L186.821 179.736L179.086 179.497Z" fill="#330E44"/>
<path opacity="0.1" d="M179.086 179.497C179.057 179.497 179.747 181.706 179.747 181.706H186.954L186.821 179.736L179.086 179.497Z" fill="#330E44"/>
<path d="M165.096 114.551C169.685 115.358 169.199 130.722 168.647 138.624C167.324 133.038 165.386 122.29 164.063 114.662C164.368 114.525 164.71 114.482 165.096 114.551Z" fill="#330E44"/>
<path opacity="0.4" d="M165.096 114.551C169.685 115.358 169.199 130.722 168.647 138.624C167.324 133.038 165.386 122.29 164.063 114.662C164.368 114.525 164.71 114.482 165.096 114.551Z" fill="white"/>
<path d="M155.952 105.654C155.952 105.654 155.471 129.129 155.852 138.702C156.247 148.66 160.122 181.267 160.122 181.267H166.043C166.043 181.267 166.262 149.241 166.524 139.463C166.809 128.8 168.247 105.654 168.247 105.654H155.952Z" fill="#330E44"/>
<path opacity="0.5" d="M155.952 105.654C155.952 105.654 155.471 129.129 155.852 138.702C156.247 148.66 160.122 181.267 160.122 181.267H166.043C166.043 181.267 166.262 149.241 166.524 139.463C166.809 128.8 168.247 105.654 168.247 105.654H155.952Z" fill="white"/>
<path d="M161.355 186.007C161.326 186.007 161.297 185.983 161.297 185.954C160.255 175.901 157.789 151.582 157.48 142.857C157.161 133.951 157.451 113.969 157.547 108.057C157.547 108.023 157.575 108 157.604 108C157.637 108 157.661 108.028 157.661 108.062C157.566 113.973 157.275 133.951 157.594 142.857C157.903 151.577 160.369 175.896 161.412 185.949C161.416 185.983 161.393 186.011 161.359 186.016C161.359 186.007 161.359 186.007 161.355 186.007Z" fill="#330E44"/>
<path opacity="0.4" d="M161.355 186.007C161.326 186.007 161.297 185.983 161.297 185.954C160.255 175.901 157.789 151.582 157.48 142.857C157.161 133.951 157.451 113.969 157.547 108.057C157.547 108.023 157.575 108 157.604 108C157.637 108 157.661 108.028 157.661 108.062C157.566 113.973 157.275 133.951 157.594 142.857C157.903 151.577 160.369 175.896 161.412 185.949C161.416 185.983 161.393 186.011 161.359 186.016C161.359 186.007 161.359 186.007 161.355 186.007Z" fill="white"/>
<path d="M158.979 179.497C158.951 179.497 159.312 181.706 159.312 181.706H166.519L166.714 179.736L158.979 179.497Z" fill="#330E44"/>
<path opacity="0.1" d="M158.979 179.497C158.951 179.497 159.312 181.706 159.312 181.706H166.519L166.714 179.736L158.979 179.497Z" fill="#330E44"/>
<defs>
<linearGradient id="paint0_linear_146_248" x1="68.0085" y1="71.6666" x2="68.0085" y2="113.907" gradientUnits="userSpaceOnUse">
<stop stop-color="#330E44"/>
<stop offset="1" stop-color="#63516C"/>
</linearGradient>
</defs>
</svg>
