<svg width="204" height="63" viewBox="0 0 204 63" fill="none" xmlns="http://www.w3.org/2000/svg">
<path d="M98.1892 21.6899L102.172 33.15H96.8887L93.6376 23.7624C93.3531 23.8031 93.0687 23.8031 92.8248 23.8031H85.9162V33.15H81.0395V4.7028H92.8248C97.0106 4.7028 101.359 8.44158 101.359 14.2529C101.359 18.52 98.7987 21.1209 98.1892 21.6899ZM92.8248 19.7392C94.8161 19.7392 96.4823 17.3009 96.4823 14.2529C96.4823 11.2457 94.8161 8.76669 92.8248 8.76669H85.9162V19.7392H92.8248ZM123.587 4.7028V8.76669H111.395V29.0861H123.587V33.15H106.518V4.7028H123.587ZM119.929 20.9584H113.02V16.8945H119.929V20.9584ZM139.981 4.7028L149.125 33.15H143.842L137.339 12.9525L130.837 33.15H125.554L134.698 4.7028H139.981ZM164.97 28.6797C167.856 28.7204 170.578 27.4199 172.448 25.1848L176.187 28.314C173.423 31.6464 169.278 33.5971 164.97 33.5564C156.883 33.5564 150.34 27.0136 150.34 18.9264C150.34 10.8799 156.883 4.29641 164.97 4.29641C169.278 4.29641 173.423 6.24708 176.187 9.57947L172.448 12.7087C170.578 10.4735 167.856 9.17308 164.97 9.17308C159.565 9.17308 155.217 13.5621 155.217 18.9264C155.217 24.3314 159.565 28.6797 164.97 28.6797ZM184.974 4.7028V16.8945H193.101V20.9584H184.974V33.15H180.097V4.7028H184.974ZM199.604 33.15H194.727V4.7028H199.604V33.15Z" fill="#F4EBFC"/>
<path d="M28.6524 45.1281L15.3457 50.7643L15.5744 48.4829L24.8665 40.1559L28.6524 45.1281Z" fill="#A597B0"/>
<path d="M16.3286 36.158L43.7864 58.7859C45.0779 59.8495 47.176 59.3898 47.7593 57.9154L67.6037 7.67769C68.2514 6.03798 66.5646 4.42386 64.6688 4.86958L1.81805 19.6654C-0.0409326 20.103 -0.626861 22.1826 0.780186 23.344L16.3286 36.158Z" fill="url(#paint0_linear_152_329)"/>
<path d="M59.1799 11.9964L24.0549 42.5203L15.7125 50.6153C15.0806 51.1774 14.0072 50.6979 14.1412 49.9147L16.4824 36.2779L59.1799 11.9964Z" fill="url(#paint1_linear_152_329)"/>
<path d="M80.6116 47.2043V46.2533H87.1324V47.2043H84.3852V56.8195H83.3738V47.2043H80.6116ZM87.2746 54.7062C87.2746 55.0182 87.345 55.2849 87.4859 55.5062C87.6368 55.7176 87.8381 55.8786 88.0897 55.9893C88.3412 56.0899 88.623 56.1402 88.935 56.1402C89.3174 56.1402 89.6645 56.0597 89.9765 55.8987C90.2884 55.7276 90.54 55.4811 90.7312 55.1591C90.9224 54.8371 91.018 54.4496 91.018 53.9968L91.2293 54.7515C91.2293 55.2547 91.0985 55.6723 90.8369 56.0044C90.5752 56.3264 90.2482 56.5679 89.8557 56.7289C89.4633 56.8899 89.0708 56.9704 88.6784 56.9704C88.2758 56.9704 87.8934 56.8849 87.5312 56.7138C87.1689 56.5427 86.8721 56.2962 86.6406 55.9742C86.4192 55.6421 86.3085 55.2345 86.3085 54.7515C86.3085 54.0773 86.545 53.544 87.018 53.1515C87.4909 52.749 88.14 52.5477 88.9651 52.5477C89.4381 52.5477 89.8406 52.6031 90.1727 52.7138C90.5048 52.8245 90.7715 52.9502 90.9727 53.0911C91.184 53.2219 91.3299 53.3326 91.4104 53.4232V54.0119C91.0683 53.7603 90.706 53.5792 90.3236 53.4685C89.9413 53.3578 89.5387 53.3025 89.1161 53.3025C88.7236 53.3025 88.3916 53.3578 88.1199 53.4685C87.8482 53.5792 87.6368 53.7402 87.4859 53.9515C87.345 54.1528 87.2746 54.4043 87.2746 54.7062ZM87.2293 51.2798L86.7614 50.5704C87.023 50.3792 87.3702 50.193 87.8029 50.0119C88.2356 49.8207 88.7639 49.7251 89.3878 49.7251C89.9211 49.7251 90.379 49.8106 90.7614 49.9817C91.1538 50.1427 91.4557 50.3842 91.6671 50.7062C91.8784 51.0282 91.984 51.4156 91.984 51.8685V56.8195H91.018V52.0043C91.018 51.7829 90.9828 51.5867 90.9123 51.4156C90.852 51.2446 90.7513 51.0936 90.6104 50.9628C90.4696 50.832 90.2935 50.7364 90.0821 50.676C89.8708 50.6056 89.6192 50.5704 89.3274 50.5704C88.9853 50.5704 88.6784 50.6106 88.4067 50.6911C88.135 50.7716 87.8985 50.8672 87.6972 50.9779C87.506 51.0886 87.35 51.1892 87.2293 51.2798ZM94.078 45.0458H95.0441V56.8195H94.078V45.0458ZM97.2897 45.0458H98.2558V56.8195H97.2897V45.0458ZM101.063 49.876H102.271L99.1011 52.744L102.558 56.8195H101.365L97.8935 52.744L101.063 49.876Z" fill="#FAF6FE"/>
<path d="M108.635 51.5364C108.635 52.4018 108.821 53.1666 109.193 53.8308C109.575 54.4849 110.079 55.0031 110.703 55.3855C111.326 55.7578 112.016 55.944 112.77 55.944C113.274 55.944 113.731 55.8836 114.144 55.7628C114.557 55.6421 114.929 55.471 115.261 55.2496C115.603 55.0182 115.905 54.7515 116.167 54.4496V55.793C115.724 56.1855 115.241 56.4823 114.718 56.6836C114.194 56.8748 113.545 56.9704 112.77 56.9704C112.036 56.9704 111.352 56.8396 110.718 56.5779C110.084 56.3062 109.53 55.9289 109.057 55.4459C108.584 54.9528 108.212 54.3742 107.94 53.71C107.679 53.0458 107.548 52.3213 107.548 51.5364C107.548 50.7515 107.679 50.027 107.94 49.3628C108.212 48.6986 108.584 48.1251 109.057 47.642C109.53 47.149 110.084 46.7716 110.718 46.51C111.352 46.2383 112.036 46.1024 112.77 46.1024C113.545 46.1024 114.194 46.203 114.718 46.4043C115.241 46.5955 115.724 46.8873 116.167 47.2798V48.6232C115.915 48.3213 115.613 48.0596 115.261 47.8383C114.919 47.6068 114.542 47.4307 114.129 47.31C113.716 47.1892 113.264 47.1288 112.77 47.1288C112.016 47.1288 111.326 47.315 110.703 47.6873C110.079 48.0596 109.575 48.5779 109.193 49.242C108.821 49.8961 108.635 50.6609 108.635 51.5364ZM117.806 53.3477C117.806 52.6433 117.961 52.0194 118.273 51.476C118.595 50.9326 119.023 50.5049 119.556 50.193C120.1 49.881 120.709 49.7251 121.383 49.7251C122.067 49.7251 122.676 49.881 123.209 50.193C123.743 50.5049 124.165 50.9326 124.477 51.476C124.799 52.0194 124.96 52.6433 124.96 53.3477C124.96 54.0421 124.799 54.666 124.477 55.2194C124.165 55.7628 123.743 56.1905 123.209 56.5025C122.676 56.8144 122.067 56.9704 121.383 56.9704C120.709 56.9704 120.1 56.8144 119.556 56.5025C119.023 56.1905 118.595 55.7628 118.273 55.2194C117.961 54.666 117.806 54.0421 117.806 53.3477ZM118.772 53.3477C118.772 53.8811 118.887 54.354 119.119 54.7666C119.35 55.1691 119.662 55.4911 120.055 55.7327C120.447 55.9641 120.89 56.0798 121.383 56.0798C121.886 56.0798 122.334 55.9641 122.726 55.7327C123.119 55.4911 123.426 55.1691 123.647 54.7666C123.879 54.354 123.994 53.8811 123.994 53.3477C123.994 52.8245 123.879 52.3565 123.647 51.944C123.426 51.5213 123.119 51.1943 122.726 50.9628C122.334 50.7314 121.886 50.6156 121.383 50.6156C120.89 50.6156 120.447 50.7314 120.055 50.9628C119.662 51.1943 119.35 51.5163 119.119 51.9289C118.887 52.3414 118.772 52.8144 118.772 53.3477ZM131.132 52.4421C131.132 51.8584 131.001 51.4106 130.739 51.0987C130.488 50.7766 130.095 50.6156 129.562 50.6156C129.19 50.6156 128.857 50.7012 128.566 50.8722C128.274 51.0433 128.047 51.2798 127.886 51.5817C127.725 51.8836 127.645 52.2207 127.645 52.593V56.8195H126.679V49.876H127.645V51.1741C127.846 50.7012 128.133 50.3439 128.505 50.1024C128.878 49.8509 129.31 49.7251 129.803 49.7251C130.528 49.7251 131.091 49.9615 131.494 50.4345C131.896 50.9075 132.098 51.5414 132.098 52.3364V56.8195H131.132V52.4421ZM138.871 52.4421C138.871 51.8584 138.74 51.4106 138.478 51.0987C138.226 50.7766 137.834 50.6156 137.301 50.6156C136.928 50.6156 136.596 50.7012 136.304 50.8722C136.013 51.0433 135.786 51.2798 135.625 51.5817C135.464 51.8836 135.384 52.2207 135.384 52.593V56.8195H134.418V49.876H135.384V51.1741C135.585 50.7012 135.872 50.3439 136.244 50.1024C136.616 49.8509 137.049 49.7251 137.542 49.7251C138.267 49.7251 138.83 49.9615 139.233 50.4345C139.635 50.9075 139.837 51.5414 139.837 52.3364V56.8195H138.871V52.4421ZM144.798 56.9704C144.174 56.9704 143.616 56.8144 143.123 56.5025C142.629 56.1905 142.242 55.7628 141.96 55.2194C141.689 54.676 141.553 54.0521 141.553 53.3477C141.553 52.6232 141.694 51.9892 141.975 51.4458C142.267 50.9024 142.665 50.4798 143.168 50.1779C143.681 49.876 144.27 49.7251 144.934 49.7251C145.588 49.7251 146.157 49.871 146.64 50.1628C147.123 50.4446 147.495 50.8521 147.757 51.3855C148.018 51.9087 148.149 52.5175 148.149 53.2119C148.149 53.2723 148.149 53.3427 148.149 53.4232C148.149 53.4936 148.144 53.549 148.134 53.5892H142.172V52.7741H147.394L147.002 53.3326C147.032 53.2823 147.057 53.2119 147.077 53.1213C147.107 53.0207 147.123 52.9301 147.123 52.8496C147.123 52.4068 147.027 52.0144 146.836 51.6723C146.645 51.3301 146.383 51.0634 146.051 50.8722C145.729 50.671 145.357 50.5704 144.934 50.5704C144.441 50.5704 144.013 50.6811 143.651 50.9024C143.299 51.1238 143.022 51.4358 142.821 51.8383C142.629 52.2408 142.529 52.7238 142.519 53.2874C142.519 53.8509 142.614 54.344 142.806 54.7666C143.007 55.1893 143.284 55.5163 143.636 55.7478C143.998 55.9691 144.426 56.0798 144.919 56.0798C145.422 56.0798 145.865 55.9691 146.247 55.7478C146.64 55.5264 146.977 55.1792 147.258 54.7062L148.028 55.2044C147.656 55.7981 147.203 56.2408 146.67 56.5327C146.146 56.8245 145.523 56.9704 144.798 56.9704ZM150.167 53.3477C150.167 53.8811 150.283 54.354 150.515 54.7666C150.746 55.1691 151.058 55.4911 151.45 55.7327C151.843 55.9641 152.286 56.0798 152.779 56.0798C153.151 56.0798 153.498 56.0245 153.82 55.9138C154.152 55.793 154.434 55.6421 154.666 55.461C154.907 55.2798 155.078 55.0886 155.179 54.8874V56.0798C154.957 56.3415 154.625 56.5578 154.183 56.7289C153.74 56.8899 153.272 56.9704 152.779 56.9704C152.105 56.9704 151.496 56.8144 150.952 56.5025C150.419 56.1905 149.991 55.7628 149.669 55.2194C149.357 54.666 149.201 54.0421 149.201 53.3477C149.201 52.6433 149.357 52.0194 149.669 51.476C149.991 50.9326 150.419 50.5049 150.952 50.193C151.496 49.881 152.105 49.7251 152.779 49.7251C153.272 49.7251 153.74 49.8106 154.183 49.9817C154.625 50.1427 154.957 50.354 155.179 50.6156V51.8081C155.078 51.6068 154.907 51.4156 154.666 51.2345C154.434 51.0534 154.152 50.9075 153.82 50.7968C153.498 50.676 153.151 50.6156 152.779 50.6156C152.286 50.6156 151.843 50.7314 151.45 50.9628C151.058 51.1943 150.746 51.5163 150.515 51.9289C150.283 52.3414 150.167 52.8144 150.167 53.3477ZM156.076 49.876H159.307V50.7666H156.076V49.876ZM157.209 47.4609H158.175V56.8195H157.209V47.4609Z" fill="#FAF6FE"/>
<path d="M164.846 53.71C165.047 54.1427 165.274 54.5352 165.525 54.8874C165.777 55.2295 166.079 55.5012 166.431 55.7025C166.783 55.9037 167.196 56.0044 167.669 56.0044C168.303 56.0044 168.801 55.8283 169.163 55.4761C169.536 55.1238 169.722 54.676 169.722 54.1326C169.722 53.6396 169.606 53.2421 169.374 52.9402C169.153 52.6383 168.861 52.3968 168.499 52.2157C168.137 52.0245 167.754 51.8584 167.352 51.7175C167.06 51.6068 166.753 51.476 166.431 51.3251C166.109 51.1741 165.802 50.988 165.51 50.7666C165.229 50.5351 164.997 50.2584 164.816 49.9364C164.635 49.6043 164.544 49.2068 164.544 48.7439C164.544 48.2307 164.67 47.7779 164.922 47.3854C165.173 46.9829 165.52 46.671 165.963 46.4496C166.406 46.2181 166.909 46.1024 167.473 46.1024C168.046 46.1024 168.539 46.2131 168.952 46.4345C169.364 46.6458 169.712 46.9175 169.993 47.2496C170.285 47.5716 170.507 47.9087 170.658 48.2609L169.782 48.759C169.661 48.4974 169.495 48.2358 169.284 47.9741C169.083 47.7125 168.831 47.5012 168.529 47.3401C168.227 47.1691 167.86 47.0835 167.427 47.0835C166.824 47.0835 166.366 47.2345 166.054 47.5364C165.752 47.8282 165.601 48.1905 165.601 48.6232C165.601 48.9653 165.686 49.2722 165.857 49.5439C166.039 49.8156 166.315 50.0622 166.688 50.2836C167.06 50.5049 167.538 50.7163 168.122 50.9175C168.413 51.0282 168.715 51.1641 169.027 51.3251C169.339 51.4861 169.626 51.6873 169.888 51.9289C170.149 52.1704 170.361 52.4622 170.522 52.8043C170.693 53.1465 170.778 53.554 170.778 54.027C170.778 54.4698 170.693 54.8723 170.522 55.2345C170.361 55.5968 170.134 55.9088 169.842 56.1704C169.551 56.422 169.213 56.6182 168.831 56.7591C168.459 56.9 168.061 56.9704 167.639 56.9704C167.045 56.9704 166.512 56.8446 166.039 56.593C165.566 56.3415 165.158 56.0094 164.816 55.5968C164.484 55.1742 164.222 54.7213 164.031 54.2383L164.846 53.71ZM173.589 45.0458V56.8195H172.623V45.0458H173.589ZM177.075 52.4421C177.075 51.8584 176.95 51.4106 176.698 51.0987C176.446 50.7766 176.049 50.6156 175.506 50.6156C175.133 50.6156 174.801 50.7062 174.509 50.8873C174.217 51.0584 173.991 51.2949 173.83 51.5968C173.669 51.8886 173.589 52.2207 173.589 52.593H173.272C173.272 52.0396 173.377 51.5515 173.589 51.1289C173.8 50.6961 174.092 50.354 174.464 50.1024C174.836 49.8509 175.264 49.7251 175.747 49.7251C176.23 49.7251 176.638 49.8257 176.97 50.027C177.312 50.2282 177.573 50.52 177.755 50.9024C177.946 51.2848 178.041 51.7628 178.041 52.3364V56.8195H177.075V52.4421ZM180.648 54.7062C180.648 55.0182 180.719 55.2849 180.859 55.5062C181.01 55.7176 181.212 55.8786 181.463 55.9893C181.715 56.0899 181.997 56.1402 182.309 56.1402C182.691 56.1402 183.038 56.0597 183.35 55.8987C183.662 55.7276 183.914 55.4811 184.105 55.1591C184.296 54.8371 184.392 54.4496 184.392 53.9968L184.603 54.7515C184.603 55.2547 184.472 55.6723 184.21 56.0044C183.949 56.3264 183.622 56.5679 183.229 56.7289C182.837 56.8899 182.444 56.9704 182.052 56.9704C181.649 56.9704 181.267 56.8849 180.905 56.7138C180.542 56.5427 180.246 56.2962 180.014 55.9742C179.793 55.6421 179.682 55.2345 179.682 54.7515C179.682 54.0773 179.919 53.544 180.392 53.1515C180.865 52.749 181.514 52.5477 182.339 52.5477C182.812 52.5477 183.214 52.6031 183.546 52.7138C183.878 52.8245 184.145 52.9502 184.346 53.0911C184.558 53.2219 184.704 53.3326 184.784 53.4232V54.0119C184.442 53.7603 184.08 53.5792 183.697 53.4685C183.315 53.3578 182.912 53.3025 182.49 53.3025C182.097 53.3025 181.765 53.3578 181.493 53.4685C181.222 53.5792 181.01 53.7402 180.859 53.9515C180.719 54.1528 180.648 54.4043 180.648 54.7062ZM180.603 51.2798L180.135 50.5704C180.397 50.3792 180.744 50.193 181.176 50.0119C181.609 49.8207 182.137 49.7251 182.761 49.7251C183.295 49.7251 183.753 49.8106 184.135 49.9817C184.527 50.1427 184.829 50.3842 185.041 50.7062C185.252 51.0282 185.358 51.4156 185.358 51.8685V56.8195H184.392V52.0043C184.392 51.7829 184.356 51.5867 184.286 51.4156C184.226 51.2446 184.125 51.0936 183.984 50.9628C183.843 50.832 183.667 50.7364 183.456 50.676C183.244 50.6056 182.993 50.5704 182.701 50.5704C182.359 50.5704 182.052 50.6106 181.78 50.6911C181.509 50.7716 181.272 50.8672 181.071 50.9779C180.88 51.0886 180.724 51.1892 180.603 51.2798ZM188.418 49.876V56.8195H187.452V49.876H188.418ZM190.637 50.9628C190.486 50.8421 190.34 50.7565 190.199 50.7062C190.068 50.6458 189.907 50.6156 189.716 50.6156C189.394 50.6156 189.132 50.7062 188.931 50.8873C188.74 51.0584 188.604 51.2949 188.523 51.5968C188.453 51.8886 188.418 52.2207 188.418 52.593H187.98C187.98 52.0396 188.07 51.5515 188.252 51.1289C188.433 50.6961 188.674 50.354 188.976 50.1024C189.278 49.8509 189.6 49.7251 189.942 49.7251C190.174 49.7251 190.39 49.7603 190.591 49.8307C190.803 49.8911 190.994 50.0068 191.165 50.1779L190.637 50.9628ZM194.854 56.9704C194.23 56.9704 193.672 56.8144 193.179 56.5025C192.686 56.1905 192.298 55.7628 192.017 55.2194C191.745 54.676 191.609 54.0521 191.609 53.3477C191.609 52.6232 191.75 51.9892 192.032 51.4458C192.324 50.9024 192.721 50.4798 193.224 50.1779C193.737 49.876 194.326 49.7251 194.99 49.7251C195.644 49.7251 196.213 49.871 196.696 50.1628C197.179 50.4446 197.551 50.8521 197.813 51.3855C198.075 51.9087 198.205 52.5175 198.205 53.2119C198.205 53.2723 198.205 53.3427 198.205 53.4232C198.205 53.4936 198.2 53.549 198.19 53.5892H192.228V52.7741H197.451L197.058 53.3326C197.088 53.2823 197.114 53.2119 197.134 53.1213C197.164 53.0207 197.179 52.9301 197.179 52.8496C197.179 52.4068 197.083 52.0144 196.892 51.6723C196.701 51.3301 196.439 51.0634 196.107 50.8722C195.785 50.671 195.413 50.5704 194.99 50.5704C194.497 50.5704 194.069 50.6811 193.707 50.9024C193.355 51.1238 193.078 51.4358 192.877 51.8383C192.686 52.2408 192.585 52.7238 192.575 53.2874C192.575 53.8509 192.671 54.344 192.862 54.7666C193.063 55.1893 193.34 55.5163 193.692 55.7478C194.054 55.9691 194.482 56.0798 194.975 56.0798C195.478 56.0798 195.921 55.9691 196.303 55.7478C196.696 55.5264 197.033 55.1792 197.315 54.7062L198.085 55.2044C197.712 55.7981 197.259 56.2408 196.726 56.5327C196.203 56.8245 195.579 56.9704 194.854 56.9704Z" fill="#FAF6FE"/>
<defs>
<linearGradient id="paint0_linear_152_329" x1="25.2699" y1="64.7239" x2="67.8755" y2="6.0608" gradientUnits="userSpaceOnUse">
<stop stop-color="white"/>
<stop offset="1" stop-color="#F0DEFF"/>
</linearGradient>
<linearGradient id="paint1_linear_152_329" x1="13.9791" y1="49.7416" x2="62.9557" y2="12.9511" gradientUnits="userSpaceOnUse">
<stop stop-color="#C9BFCD"/>
<stop offset="0.5875" stop-color="#270A48"/>
</linearGradient>
</defs>
</svg>
