<svg width="94" height="116" viewBox="0 0 94 116" fill="none" xmlns="http://www.w3.org/2000/svg">
<path d="M82.8905 14.4961V101.472C82.8916 104.607 81.8793 107.657 80.0054 110.166C78.1314 112.675 75.4967 114.507 72.4962 115.389C69.7485 116.204 71.7912 115.968 25.0443 115.968C21.2089 115.968 17.5305 114.441 14.8184 111.723C12.1064 109.004 10.5828 105.317 10.5828 101.472V14.4961C10.5828 10.6515 12.1064 6.96433 14.8184 4.2458C17.5305 1.52726 21.2089 0 25.0443 0L68.4289 0C72.2644 0 75.9427 1.52726 78.6548 4.2458C81.3668 6.96433 82.8905 10.6515 82.8905 14.4961Z" fill="#330E44"/>
<path d="M77.647 16.3081V97.8484C77.647 100.732 76.5042 103.497 74.4702 105.536C72.4361 107.575 69.6774 108.72 66.8008 108.72H27.0316C24.155 108.72 21.3962 107.575 19.3622 105.536C17.3281 103.497 16.1854 100.732 16.1854 97.8484V16.3081C16.1854 13.4246 17.3281 10.6593 19.3622 8.62038C21.3962 6.58148 24.155 5.43604 27.0316 5.43604H32.9789C33.3548 5.43883 33.7204 5.55902 34.025 5.77986C34.3295 6.0007 34.5578 6.31122 34.6781 6.6682L35.2385 8.38961C35.478 9.11279 35.9387 9.74193 36.5553 10.1876C37.1719 10.6332 37.913 10.8727 38.6731 10.8721H55.1593C55.9194 10.8727 56.6605 10.6332 57.2771 10.1876C57.8937 9.74193 58.3544 9.11279 58.5939 8.38961L59.1543 6.68632C59.2724 6.32303 59.5022 6.00649 59.8106 5.78194C60.119 5.55739 60.4904 5.43632 60.8716 5.43604H66.8008C69.6774 5.43604 72.4361 6.58148 74.4702 8.62038C76.5042 10.6593 77.647 13.4246 77.647 16.3081Z" fill="#F4EBFC"/>
<path d="M57.7384 34.4281C57.259 34.4281 56.7992 34.2372 56.4602 33.8974C56.1212 33.5576 55.9307 33.0967 55.9307 32.6161V28.9921C55.9307 26.5892 54.9784 24.2848 53.2834 22.5857C51.5884 20.8866 49.2894 19.9321 46.8923 19.9321C44.4951 19.9321 42.1961 20.8866 40.5011 22.5857C38.8061 24.2848 37.8538 26.5892 37.8538 28.9921V32.6161C37.8538 33.0967 37.6633 33.5576 37.3243 33.8974C36.9853 34.2372 36.5255 34.4281 36.0461 34.4281C35.5667 34.4281 35.1069 34.2372 34.7679 33.8974C34.4289 33.5576 34.2384 33.0967 34.2384 32.6161V28.9921C34.2384 25.6281 35.5716 22.4019 37.9446 20.0231C40.3177 17.6444 43.5362 16.3081 46.8923 16.3081C50.2483 16.3081 53.4668 17.6444 55.8399 20.0231C58.2129 22.4019 59.5461 25.6281 59.5461 28.9921V32.6161C59.5461 33.0967 59.3556 33.5576 59.0166 33.8974C58.6776 34.2372 58.2178 34.4281 57.7384 34.4281Z" fill="#330E44"/>
<path d="M61.146 30.8041H32.8737C30.877 30.8041 29.2583 32.4266 29.2583 34.4281V59.7962C29.2583 61.7977 30.877 63.4202 32.8737 63.4202H61.146C63.1427 63.4202 64.7614 61.7977 64.7614 59.7962V34.4281C64.7614 32.4266 63.1427 30.8041 61.146 30.8041Z" fill="#330E44"/>
<path d="M47.2514 39.8641C48.2498 39.8641 49.0591 39.0529 49.0591 38.0521C49.0591 37.0514 48.2498 36.2401 47.2514 36.2401C46.2531 36.2401 45.4437 37.0514 45.4437 38.0521C45.4437 39.0529 46.2531 39.8641 47.2514 39.8641Z" fill="#F3F3F3"/>
<path d="M47.2514 47.1121C48.2498 47.1121 49.0591 46.3009 49.0591 45.3001C49.0591 44.2994 48.2498 43.4881 47.2514 43.4881C46.2531 43.4881 45.4437 44.2994 45.4437 45.3001C45.4437 46.3009 46.2531 47.1121 47.2514 47.1121Z" fill="#F3F3F3"/>
<path d="M52.5548 45.3001C52.5575 44.3029 52.2866 43.3241 51.7716 42.4709C51.2566 41.6176 50.5174 40.9229 49.6348 40.4626C48.7523 40.0023 47.7604 39.7942 46.7678 39.8611C45.7752 39.928 44.82 40.2674 44.0069 40.842C43.1938 41.4166 42.554 42.2043 42.1577 43.119C41.7613 44.0337 41.6235 45.04 41.7595 46.0279C41.8955 47.0158 42.3 47.9471 42.9287 48.72C43.5573 49.4929 44.386 50.0776 45.324 50.41V54.3602C45.324 54.8407 45.5144 55.3016 45.8534 55.6414C46.1925 55.9813 46.6522 56.1722 47.1317 56.1722C47.6111 56.1722 48.0709 55.9813 48.4099 55.6414C48.7489 55.3016 48.9394 54.8407 48.9394 54.3602V50.41C49.9942 50.0361 50.908 49.3444 51.5552 48.4296C52.2025 47.5148 52.5516 46.4217 52.5548 45.3001Z" fill="#F4EBFC"/>
<path d="M90.3846 70.6682H3.61538C1.61866 70.6682 0 72.2908 0 74.2923V88.7883C0 90.7898 1.61866 92.4123 3.61538 92.4123H90.3846C92.3813 92.4123 94 90.7898 94 88.7883V74.2923C94 72.2908 92.3813 70.6682 90.3846 70.6682Z" fill="#330E44"/>
<path d="M14.6131 88.7883C14.1337 88.7883 13.6739 88.5974 13.3349 88.2576C12.9959 87.9178 12.8054 87.4569 12.8054 86.9763V76.1043C12.8054 75.6237 12.9959 75.1628 13.3349 74.823C13.6739 74.4832 14.1337 74.2923 14.6131 74.2923C15.0925 74.2923 15.5523 74.4832 15.8913 74.823C16.2304 75.1628 16.4208 75.6237 16.4208 76.1043V86.9763C16.4208 87.4569 16.2304 87.9178 15.8913 88.2576C15.5523 88.5974 15.0925 88.7883 14.6131 88.7883Z" fill="#F4EBFC"/>
<path d="M19.313 86.0703C18.6261 86.0703 19.1323 86.2515 9.0092 80.3987C8.59209 80.1584 8.2873 79.7619 8.16187 79.2964C8.03643 78.8308 8.10064 78.3344 8.34035 77.9163C8.58007 77.4982 8.97566 77.1927 9.4401 77.0669C9.90454 76.9412 10.3998 77.0055 10.8169 77.2458L20.2169 82.6819C20.5651 82.8797 20.838 83.1877 20.9928 83.5577C21.1475 83.9277 21.1754 84.3388 21.072 84.7264C20.9686 85.114 20.7398 85.4562 20.4215 85.6995C20.1032 85.9427 19.7133 86.0731 19.313 86.0703Z" fill="#F4EBFC"/>
<path d="M9.9131 86.0703C9.51285 86.0731 9.12299 85.9427 8.80465 85.6995C8.48631 85.4563 8.25751 85.114 8.15412 84.7264C8.05073 84.3388 8.0786 83.9278 8.23336 83.5578C8.38812 83.1878 8.66102 82.8797 9.00926 82.6819L18.4093 77.2459C18.6158 77.1269 18.8437 77.0499 19.0799 77.0192C19.3161 76.9885 19.5561 77.0047 19.7861 77.067C20.016 77.1292 20.2315 77.2363 20.4202 77.382C20.6089 77.5277 20.7671 77.7093 20.8858 77.9163C21.0045 78.1233 21.0813 78.3518 21.112 78.5886C21.1426 78.8253 21.1264 79.0659 21.0643 79.2964C21.0022 79.5269 20.8954 79.7429 20.75 79.932C20.6046 80.1212 20.4235 80.2798 20.217 80.3988C10.0758 86.2515 10.6 86.0703 9.9131 86.0703ZM36.3054 88.7883C35.826 88.7883 35.3662 88.5974 35.0272 88.2576C34.6882 87.9178 34.4977 87.4569 34.4977 86.9763V76.1043C34.4977 75.6237 34.6882 75.1628 35.0272 74.823C35.3662 74.4832 35.826 74.2923 36.3054 74.2923C36.7848 74.2923 37.2446 74.4832 37.5836 74.823C37.9227 75.1628 38.1131 75.6237 38.1131 76.1043V86.9763C38.1131 87.4569 37.9227 87.9178 37.5836 88.2576C37.2446 88.5974 36.7848 88.7883 36.3054 88.7883Z" fill="#F4EBFC"/>
<path d="M41.0054 86.0703C40.3185 86.0703 40.8247 86.2515 30.7016 80.3987C30.2845 80.1584 29.9797 79.7619 29.8542 79.2964C29.7288 78.8308 29.793 78.3344 30.0327 77.9163C30.2725 77.4982 30.668 77.1927 31.1325 77.0669C31.5969 76.9412 32.0922 77.0055 32.5093 77.2458L41.9093 82.6819C42.2575 82.8797 42.5304 83.1877 42.6852 83.5577C42.8399 83.9277 42.8678 84.3388 42.7644 84.7264C42.661 85.114 42.4322 85.4562 42.1139 85.6995C41.7955 85.9427 41.4057 86.0731 41.0054 86.0703Z" fill="#F4EBFC"/>
<path d="M31.6055 86.0703C31.2052 86.0731 30.8154 85.9427 30.497 85.6995C30.1787 85.4562 29.9499 85.114 29.8465 84.7264C29.7431 84.3388 29.771 83.9278 29.9257 83.5577C30.0805 83.1877 30.3534 82.8797 30.7016 82.6819L40.1016 77.2458C40.3082 77.1269 40.5361 77.0498 40.7723 77.0191C41.0085 76.9884 41.2485 77.0047 41.4784 77.0669C41.7084 77.1292 41.9239 77.2362 42.1126 77.382C42.3013 77.5277 42.4595 77.7093 42.5782 77.9163C42.6969 78.1233 42.7737 78.3517 42.8044 78.5885C42.835 78.8253 42.8188 79.0658 42.7567 79.2964C42.6946 79.5269 42.5878 79.7429 42.4424 79.932C42.297 80.1212 42.1159 80.2797 41.9093 80.3987C31.7682 86.2515 32.2924 86.0703 31.6055 86.0703ZM57.9978 88.7883C57.5184 88.7883 57.0586 88.5974 56.7196 88.2576C56.3806 87.9178 56.1901 87.4569 56.1901 86.9763V76.1043C56.1901 75.6237 56.3806 75.1628 56.7196 74.823C57.0586 74.4832 57.5184 74.2923 57.9978 74.2923C58.4772 74.2923 58.937 74.4832 59.276 74.823C59.615 75.1628 59.8055 75.6237 59.8055 76.1043V86.9763C59.8055 87.4569 59.615 87.9178 59.276 88.2576C58.937 88.5974 58.4772 88.7883 57.9978 88.7883Z" fill="#F4EBFC"/>
<path d="M62.6977 86.0703C62.0108 86.0703 62.5169 86.2515 52.3938 80.3987C51.9767 80.1584 51.6719 79.7619 51.5465 79.2964C51.4211 78.8308 51.4853 78.3344 51.725 77.9163C51.9647 77.4982 52.3603 77.1927 52.8247 77.0669C53.2892 76.9412 53.7844 77.0055 54.2015 77.2458L63.6015 82.6819C63.9498 82.8797 64.2227 83.1877 64.3774 83.5577C64.5322 83.9277 64.5601 84.3388 64.4567 84.7264C64.3533 85.114 64.1245 85.4562 63.8061 85.6995C63.4878 85.9427 63.0979 86.0731 62.6977 86.0703Z" fill="#F4EBFC"/>
<path d="M53.2978 86.0703C52.8975 86.0731 52.5076 85.9427 52.1893 85.6995C51.871 85.4562 51.6422 85.114 51.5388 84.7264C51.4354 84.3388 51.4632 83.9278 51.618 83.5577C51.7728 83.1877 52.0457 82.8797 52.3939 82.6819L61.7939 77.2458C62.0004 77.1269 62.2283 77.0498 62.4645 77.0191C62.7008 76.9884 62.9407 77.0047 63.1707 77.0669C63.4007 77.1292 63.6161 77.2362 63.8048 77.382C63.9935 77.5277 64.1518 77.7093 64.2704 77.9163C64.3891 78.1233 64.466 78.3517 64.4966 78.5885C64.5272 78.8253 64.511 79.0658 64.4489 79.2964C64.3868 79.5269 64.28 79.7429 64.1346 79.932C63.9893 80.1212 63.8081 80.2797 63.6016 80.3987C53.4604 86.2515 53.9847 86.0703 53.2978 86.0703ZM79.6901 88.7883C79.2106 88.7883 78.7508 88.5974 78.4118 88.2576C78.0728 87.9178 77.8824 87.4569 77.8824 86.9763V76.1043C77.8824 75.6237 78.0728 75.1628 78.4118 74.823C78.7508 74.4832 79.2106 74.2923 79.6901 74.2923C80.1695 74.2923 80.6293 74.4832 80.9683 74.823C81.3073 75.1628 81.4978 75.6237 81.4978 76.1043V86.9763C81.4978 87.4569 81.3073 87.9178 80.9683 88.2576C80.6293 88.5974 80.1695 88.7883 79.6901 88.7883Z" fill="#F4EBFC"/>
<path d="M84.3899 86.0703C83.703 86.0703 84.2092 86.2515 74.0861 80.3987C73.669 80.1584 73.3642 79.7619 73.2388 79.2964C73.1133 78.8308 73.1775 78.3344 73.4173 77.9163C73.657 77.4982 74.0526 77.1927 74.517 77.0669C74.9814 76.9412 75.4767 77.0055 75.8938 77.2458L85.2938 82.6819C85.642 82.8797 85.9149 83.1877 86.0697 83.5577C86.2245 83.9277 86.2523 84.3388 86.1489 84.7264C86.0455 85.114 85.8167 85.4562 85.4984 85.6995C85.1801 85.9427 84.7902 86.0731 84.3899 86.0703Z" fill="#F4EBFC"/>
<path d="M74.99 86.0703C74.5898 86.0731 74.1999 85.9427 73.8816 85.6995C73.5632 85.4562 73.3344 85.114 73.231 84.7264C73.1276 84.3388 73.1555 83.9277 73.3103 83.5577C73.465 83.1877 73.7379 82.8797 74.0862 82.6819L83.4862 77.2458C83.6927 77.1269 83.9206 77.0498 84.1568 77.0191C84.393 76.9884 84.633 77.0047 84.863 77.0669C85.0929 77.1292 85.3084 77.2362 85.4971 77.382C85.6858 77.5277 85.844 77.7093 85.9627 77.9163C86.0814 78.1233 86.1582 78.3517 86.1889 78.5885C86.2195 78.8253 86.2033 79.0658 86.1412 79.2964C86.0791 79.5269 85.9723 79.7429 85.8269 79.932C85.6815 80.1212 85.5004 80.2797 85.2939 80.3987C75.1527 86.2515 75.6769 86.0703 74.99 86.0703Z" fill="#F4EBFC"/>
</svg>
