<svg width="15" height="15" viewBox="0 0 15 15" fill="none" xmlns="http://www.w3.org/2000/svg">
<path d="M13.7527 0.213826C14.0369 -0.0702989 14.4899 -0.0719702 14.7849 0.21299C15.0716 0.499621 15.0716 0.962577 14.7857 1.24837L1.24727 14.7861C1.11271 14.9206 0.918814 15 0.729932 15C0.54523 15 0.363034 14.9248 0.21594 14.7886C-0.0715609 14.4902 -0.0715608 14.0365 0.213433 13.7515L2.44491 11.5203H2.42234C1.30995 11.5203 0.500099 10.7348 0.349662 9.51473C0.181674 8.29466 0.215105 6.20551 0.349662 5.09408C0.50762 3.94087 1.36093 3.14783 2.42234 3.14783H3.86737L6.62538 0.891546C6.96052 0.607422 7.55391 0.339175 8.01274 0.331654C8.8485 0.331654 9.6174 0.91578 9.8932 1.85172C10.0018 2.24532 10.0445 2.63724 10.0779 3.01412L10.1439 3.54811C10.1548 3.63001 10.1648 3.70856 10.1732 3.79212L13.7527 0.213826ZM9.85851 8.31171C10.1652 8.38943 10.2254 8.82982 10.2204 9.17578C10.2062 10.1802 10.1728 10.8789 10.1193 11.3109L10.0817 11.6669C10.0457 12.0271 10.009 12.3998 9.90197 12.7975C9.62366 13.7318 8.87733 14.3385 8.02904 14.3385C8.00146 14.3385 7.97388 14.3385 7.94546 14.3377C7.4766 14.3377 6.96846 14.0569 6.68012 13.812L5.65297 13.0173C5.26267 12.7273 5.37801 12.2644 5.59698 11.9961C5.69651 11.8746 6.46361 11.1586 7.28151 10.4031L7.60992 10.1002C8.4851 9.29364 9.32451 8.52645 9.37962 8.47216C9.49245 8.36185 9.74485 8.28246 9.85851 8.31171Z" fill="#62297F"/>
</svg>
