<svg width="15" height="15" viewBox="0 0 15 15" fill="none" xmlns="http://www.w3.org/2000/svg">
<path fill-rule="evenodd" clip-rule="evenodd" d="M9.19506 0.193687C9.45333 -0.0645631 9.87198 -0.0645618 10.1303 0.193687L11.5331 1.5965L13.4035 3.46691L14.8063 4.86972C15.0646 5.12799 15.0646 5.54669 14.8063 5.80494C14.5481 6.06318 14.1294 6.06318 13.8711 5.80494L13.0074 4.94128L8.19781 11.3541L9.66268 12.819C9.92091 13.0773 9.92091 13.496 9.66268 13.7542C9.40443 14.0125 8.98571 14.0125 8.72746 13.7542L6.85705 11.8838L5.45424 10.481L1.1289 14.8063C0.870651 15.0646 0.451934 15.0646 0.193686 14.8063C-0.064562 14.5481 -0.064562 14.1294 0.193686 13.8711L4.51903 9.54577L3.11621 8.14296L1.2458 6.27254C0.987554 6.01429 0.987541 5.59558 1.2458 5.33734C1.50405 5.07909 1.92275 5.07909 2.181 5.33734L3.64587 6.80221L10.0587 1.99256L9.19506 1.1289C8.93682 0.870652 8.93682 0.451935 9.19506 0.193687Z" fill="#FAF6FE"/>
<path fill-rule="evenodd" clip-rule="evenodd" d="M9.19506 0.193687C9.45333 -0.0645631 9.87198 -0.0645618 10.1303 0.193687L11.5331 1.5965L13.4035 3.46691L14.8063 4.86972C15.0646 5.12799 15.0646 5.54669 14.8063 5.80494C14.5481 6.06318 14.1294 6.06318 13.8711 5.80494L13.0074 4.94128L8.19781 11.3541L9.66268 12.819C9.92091 13.0773 9.92091 13.496 9.66268 13.7542C9.40443 14.0125 8.98571 14.0125 8.72746 13.7542L6.85705 11.8838L5.45424 10.481L1.1289 14.8063C0.870651 15.0646 0.451934 15.0646 0.193686 14.8063C-0.064562 14.5481 -0.064562 14.1294 0.193686 13.8711L4.51903 9.54577L3.11621 8.14296L1.2458 6.27254C0.987554 6.01429 0.987541 5.59558 1.2458 5.33734C1.50405 5.07909 1.92275 5.07909 2.181 5.33734L3.64587 6.80221L10.0587 1.99256L9.19506 1.1289C8.93682 0.870652 8.93682 0.451935 9.19506 0.193687Z" fill="#62297F"/>
</svg>
