<svg width="77" height="19" viewBox="0 0 77 19" fill="none" xmlns="http://www.w3.org/2000/svg">
<path d="M11.3 10.95L13.75 18H10.5L8.5 12.225C8.325 12.25 8.15 12.25 8 12.25H3.75V18H0.75V0.499999H8C10.575 0.499999 13.25 2.8 13.25 6.375C13.25 9 11.675 10.6 11.3 10.95ZM8 9.75C9.225 9.75 10.25 8.25 10.25 6.375C10.25 4.525 9.225 3 8 3H3.75V9.75H8ZM27.6738 0.499999V3H20.1738V15.5H27.6738V18H17.1738V0.499999H27.6738ZM25.4238 10.5H21.1738V8H25.4238V10.5ZM38.5092 0.499999L44.1342 18H40.8842L36.8842 5.575L32.8842 18H29.6342L35.2592 0.499999H38.5092ZM54.632 15.25C56.407 15.275 58.082 14.475 59.232 13.1L61.532 15.025C59.832 17.075 57.282 18.275 54.632 18.25C49.657 18.25 45.632 14.225 45.632 9.25C45.632 4.3 49.657 0.249999 54.632 0.249999C57.282 0.249999 59.832 1.45 61.532 3.5L59.232 5.425C58.082 4.05 56.407 3.25 54.632 3.25C51.307 3.25 48.632 5.95 48.632 9.25C48.632 12.575 51.307 15.25 54.632 15.25ZM67.6875 0.499999V8H72.6875V10.5H67.6875V18H64.6875V0.499999H67.6875ZM76.6875 18H73.6875V0.499999H76.6875V18Z" fill="#F4EBFC"/>
</svg>
